<?xml version="1.0" encoding="utf-8"?>
<!-- Generator: Adobe Illustrator 26.0.1, SVG Export Plug-In . SVG Version: 6.00 Build 0)  -->
<svg version="1.1" id="Layer_1" xmlns="http://www.w3.org/2000/svg" xmlns:xlink="http://www.w3.org/1999/xlink" x="0px" y="0px"
	 viewBox="0 0 50 50" style="enable-background:new 0 0 50 50;" xml:space="preserve">
<style type="text/css">
	.st0{fill:#3AA6DE;}
	.st1{fill:#070707;}
	.st2{fill:#060606;}
	.st3{fill:#070808;}
	.st4{fill:#090909;}
	.st5{fill:#0B0B0B;}
	.st6{fill:#09090A;}
	.st7{fill:#0C0C0C;}
	.st8{fill:#050606;}
	.st9{fill:#050505;}
	.st10{fill:#080808;}
	.st11{fill:#080909;}
	.st12{fill:#D6B92B;}
</style>
<g>
	<path class="st0" d="M21,22.1c0.3-0.5,0.6-0.9,0.9-1.4c2.3-3.5,4.7-7,7-10.6c1.2-1.8,2.4-3.6,3.5-5.3c0.1-0.1,0.1-0.1,0.3-0.1
		c0.4,0.1,0.8,0.2,1.2,0.4c0.1,0,0.2,0.1,0.2,0.2c1.7,2.8,3.5,5.7,5.2,8.5c1.7,2.8,3.4,5.5,5,8.3c0,0,0,0.1,0.1,0.1
		c-0.5,0.1-1,0.3-1.5,0.4c-3.3,0.8-6.7,1.7-10,2.5c-0.9,0.2-1.7,0.4-2.6,0.6c-0.1,0-0.2,0-0.3,0c-1.7-0.4-3.2-1.2-4.8-1.8
		c-1.3-0.5-2.7-1.1-4-1.6C21.2,22.2,21.1,22.2,21,22.1z M33.5,6.4c-3.6,5.4-7.1,10.8-10.7,16.1c0.1,0,0.2,0.1,0.2,0.1
		c2,0.8,4,1.6,5.9,2.4c0.1,0,0.2,0,0.3,0c4.1-1,8.2-2.1,12.4-3.1c0.4-0.1,0.8-0.2,1.2-0.3C39.7,16.5,36.6,11.5,33.5,6.4z"/>
	<path class="st1" d="M11.9,26.2c1.2,0,2.3,0,3.4,0c0.6,0,1.2,0.2,1.7,0.6c0.5,0.5,0.9,1,1,1.7c0.3,1.2,0.3,2.4-0.2,3.5
		c-0.4,0.9-1.2,1.5-2.2,1.6c-0.5,0.1-1,0-1.5,0.1c-0.7,0-1.5,0-2.2,0C11.9,31.2,11.9,28.7,11.9,26.2z M13.4,32.5c0.6,0,1.2,0,1.8,0
		c0.7,0,1.1-0.4,1.3-1.1c0.2-0.9,0.2-1.8,0-2.8c-0.1-0.5-0.5-0.9-1-1.1c-0.2-0.1-0.4-0.1-0.6-0.1c-0.5,0-1,0-1.5,0
		C13.4,29.1,13.4,30.8,13.4,32.5z"/>
	<path class="st1" d="M39.1,29c0-0.3,0-0.5,0-0.7c0.4,0,0.9,0,1.3,0c0,0.1,0,0.1,0,0.2c0,1.7,0,3.4,0,5.1c0,0.6-0.1,1.1-0.4,1.6
		c-0.3,0.4-0.7,0.6-1.2,0.7C38,36,37.2,36,36.4,35.8c-0.8-0.2-1.2-0.9-1.1-1.7c0.5,0.1,1,0.1,1.5,0.2c0,0,0.1,0.1,0.1,0.1
		c0.1,0.3,0.3,0.4,0.5,0.4c0.3,0,0.6,0,0.9,0c0.4-0.1,0.6-0.4,0.6-0.7c0-0.4,0-0.8,0-1.2c-0.1,0.2-0.3,0.3-0.4,0.4
		c-0.8,0.8-2.4,0.6-3.1-0.6c-0.3-0.5-0.4-1-0.4-1.5c0-0.6,0-1.3,0.3-1.9c0.4-0.8,1.1-1.2,2-1.2c0.6,0,1.1,0.2,1.5,0.7
		C39,28.9,39,28.9,39.1,29z M36.5,31C36.5,31.1,36.5,31.1,36.5,31c0.1,0.2,0.1,0.4,0.1,0.5c0.1,0.6,0.5,1,1,1c0.5,0,1-0.3,1.2-0.8
		c0.2-0.6,0.2-1.2,0-1.8c-0.2-0.5-0.6-0.8-1.1-0.8c-0.5,0-0.9,0.3-1,0.9C36.6,30.4,36.6,30.7,36.5,31z"/>
	<path class="st2" d="M11,33.7c-0.5,0-1,0-1.5,0c-0.1,0-0.1-0.1-0.2-0.1c-0.2-0.5-0.4-0.9-0.5-1.4c0-0.1-0.1-0.2-0.2-0.2
		c-0.9,0-1.8,0-2.7,0c-0.1,0-0.2,0-0.2,0.1c-0.2,0.5-0.4,1-0.6,1.6c-0.5,0-1,0-1.6,0C3.7,33,4,32.3,4.2,31.7
		c0.7-1.8,1.4-3.5,2.1-5.3c0-0.1,0.1-0.2,0.2-0.2c0.4,0,0.9,0,1.3,0c0.1,0,0.2,0.1,0.2,0.1C9,28.8,10,31.2,11,33.7
		C11,33.7,11,33.7,11,33.7z M8.2,30.8c-0.3-0.9-0.7-1.8-1-2.8c-0.3,0.9-0.7,1.8-1,2.7c0,0,0,0.1,0,0.1C6.8,30.8,7.5,30.8,8.2,30.8z"
		/>
	<path class="st1" d="M46.5,31.4c-1.2,0-2.4,0-3.6,0c0,0.8,0.4,1.3,1,1.4c0.6,0.1,0.9-0.1,1.2-0.8c0.2,0,0.5,0.1,0.7,0.1
		c0.2,0,0.5,0.1,0.7,0.1c-0.2,0.6-0.6,1.1-1.1,1.3c-1,0.4-2,0.4-2.9-0.2c-0.5-0.3-0.8-0.9-0.9-1.4c-0.2-0.8-0.2-1.5,0.1-2.3
		c0.4-0.9,1-1.4,2-1.5c0.8-0.1,1.5,0.1,2,0.6c0.2,0.2,0.4,0.5,0.6,0.8C46.5,30.1,46.6,30.7,46.5,31.4z M45.1,30.5
		c0-0.7-0.4-1.3-1.1-1.3c-0.6,0-1.1,0.6-1.1,1.3C43.7,30.5,44.4,30.5,45.1,30.5z"/>
	<path class="st3" d="M30.1,31.4c-1.3,0-2.5,0-3.7,0c0,0.9,0.5,1.3,1,1.4c0.6,0.1,0.9-0.1,1.2-0.8c0.5,0.1,0.9,0.2,1.4,0.2
		c-0.2,0.6-0.5,1.1-1.1,1.3c-1,0.5-2,0.4-3-0.3c-0.5-0.3-0.7-0.9-0.8-1.4c-0.2-0.8-0.1-1.6,0.2-2.4c0.4-0.8,1-1.3,1.9-1.4
		c0.8-0.1,1.4,0.1,2,0.6c0.4,0.3,0.6,0.7,0.7,1.2C30,30.4,30,30.9,30.1,31.4z M26.5,30.5c0.7,0,1.5,0,2.2,0c0-0.9-0.6-1.3-1.1-1.3
		C26.9,29.3,26.5,29.8,26.5,30.5z"/>
	<path class="st4" d="M7,43.6c0.6-1.4,1.1-2.9,1.7-4.3c0.2-0.5,0.4-0.9,0.5-1.4c0-0.1,0.1-0.2,0.2-0.2c0.3,0,0.6,0,0.9,0
		c0.1,0,0.2,0,0.2,0.2c0.7,1.8,1.5,3.7,2.2,5.5c0,0,0,0.1,0,0.1c-0.4,0-0.8,0-1.1,0c-0.1,0-0.1-0.1-0.2-0.1c-0.1-0.3-0.3-0.7-0.4-1
		c0-0.1-0.1-0.2-0.2-0.2c-0.7,0-1.4,0-2,0c-0.1,0-0.2,0-0.2,0.2c-0.1,0.3-0.2,0.7-0.4,1c0,0.1-0.1,0.2-0.2,0.2
		C7.7,43.6,7.4,43.6,7,43.6z M10.7,41.3c-0.3-0.7-0.5-1.4-0.8-2.2c-0.3,0.7-0.5,1.4-0.8,2.2C9.6,41.3,10.1,41.3,10.7,41.3z"/>
	<path class="st4" d="M18.8,28.3c0.5,0,0.9,0,1.4,0c0.1,0,0.2,0.1,0.2,0.2c0.4,1.1,0.8,2.3,1.2,3.4c0,0,0,0.1,0.1,0.1
		c0.1-0.2,0.1-0.3,0.1-0.4c0.4-1.1,0.8-2.1,1.2-3.2c0-0.1,0.1-0.1,0.2-0.1c0.4,0,0.9,0,1.3,0c-0.2,0.4-0.3,0.8-0.5,1.2
		c-0.5,1.4-1.1,2.7-1.6,4.1c0,0.1-0.1,0.2-0.2,0.2c-0.3,0-0.6,0-1,0c-0.1,0-0.2,0-0.2-0.2c-0.6-1.6-1.3-3.2-1.9-4.8
		C18.9,28.6,18.9,28.4,18.8,28.3z"/>
	<path class="st5" d="M26,39.4c0.3,1,0.7,2,1,2.9c0,0,0,0,0.1,0c0.2-0.5,0.3-1,0.5-1.4c0.1-0.4,0.3-0.9,0.4-1.3
		c0-0.1,0.1-0.2,0.2-0.2c0.3,0,0.6,0,1,0c-0.2,0.5-0.4,1-0.6,1.6c-0.4,1.1-0.8,2.2-1.2,3.4c-0.3,0.8-0.8,1.1-1.8,1
		c-0.1,0-0.1,0-0.2,0c-0.1,0-0.2-0.1-0.2-0.2c0-0.2,0-0.4-0.1-0.7c0.2,0,0.5,0,0.7,0c0.4-0.1,0.7-0.6,0.6-1c-0.5-1.3-1-2.6-1.5-3.9
		c0,0,0-0.1,0-0.1C25.2,39.4,25.6,39.4,26,39.4z"/>
	<path class="st6" d="M22.2,43.6c-0.3,0-0.6,0-1,0c-0.1,0-0.1-0.1-0.2-0.1c0-0.1-0.1-0.2-0.1-0.3c-0.2,0.1-0.3,0.2-0.4,0.3
		c-0.6,0.3-1.2,0.4-1.8,0c-0.4-0.3-0.6-0.7-0.5-1.2c0.1-0.5,0.4-0.8,0.8-0.9c0.5-0.1,1-0.2,1.5-0.4c0.1,0,0.3,0,0.3-0.2
		c0-0.3-0.1-0.5-0.4-0.5c-0.5-0.2-0.9,0-1.1,0.4c0,0.1-0.2,0.1-0.2,0.1c-0.3,0-0.5-0.1-0.8-0.1c0.1-0.6,0.6-1.1,1.3-1.2
		c0.4,0,0.9,0,1.4,0.1c0.6,0.1,0.9,0.5,0.9,1.1c0,0.6,0,1.2,0,1.8C21.9,42.7,22,43.1,22.2,43.6z M20.9,41.5
		c-0.4,0.1-0.9,0.2-1.2,0.3c-0.4,0.1-0.4,0.7-0.1,0.9c0.4,0.3,1.2,0,1.2-0.5C20.9,42.1,20.8,41.8,20.9,41.5z"/>
	<path class="st7" d="M41.9,40.5c-0.3-0.5-0.9-0.7-1.4-0.4c-0.1,0-0.2,0.2-0.2,0.2c0,0.1,0.1,0.2,0.2,0.3c0.4,0.1,0.7,0.2,1.1,0.3
		c0.3,0.1,0.5,0.2,0.8,0.3c0.8,0.3,0.8,1.4,0.3,1.8c-0.3,0.3-0.6,0.5-1,0.5c-0.7,0.1-1.4,0.1-2-0.3c-0.3-0.2-0.5-0.5-0.6-0.9
		c0.3-0.1,0.6-0.1,0.9-0.2c0.1,0,0.2,0.1,0.2,0.1c0.3,0.5,1.1,0.7,1.5,0.4c0.1-0.1,0.1-0.2,0.1-0.3c0-0.2-0.1-0.2-0.3-0.3
		c-0.5-0.1-1-0.2-1.5-0.4c-0.4-0.1-0.7-0.3-0.9-0.7c-0.2-0.6,0.1-1.4,0.8-1.6c0.6-0.2,1.3-0.2,1.9,0c0.4,0.2,0.7,0.5,0.8,0.9
		C42.5,40.4,42.2,40.5,41.9,40.5z"/>
	<path class="st8" d="M14.6,43.6c-0.4,0-0.7,0-1.1,0c0-1.4,0-2.8,0-4.2c0.3,0,0.7,0,1,0c0,0.2,0,0.4,0,0.6c0.1-0.1,0.1-0.1,0.2-0.2
		c0.6-0.6,1.5-0.7,2.2-0.2c0.4,0.3,0.5,0.6,0.5,1c0,1,0,2,0,3c-0.4,0-0.7,0-1.1,0c0-0.1,0-0.1,0-0.2c0-0.8,0-1.6,0-2.4
		c0-0.3,0-0.6-0.3-0.7c-0.4-0.3-1.2-0.1-1.3,0.5c-0.1,0.3-0.1,0.6-0.1,0.9C14.6,42.3,14.6,42.9,14.6,43.6z"/>
	<path class="st9" d="M34.8,28.4c-0.1,0.4-0.3,0.8-0.4,1.2c-0.3-0.1-0.6-0.2-0.9-0.1c-0.4,0-0.7,0.4-0.7,0.9
		c-0.1,0.9-0.1,1.9-0.1,2.8c0,0.2,0,0.3,0,0.5c-0.5,0-0.9,0-1.4,0c0-1.8,0-3.6,0-5.4c0.4,0,0.9,0,1.3,0c0,0.2,0,0.5,0,0.8
		c0.3-0.4,0.5-0.8,1-0.9C34,28.1,34.4,28.2,34.8,28.4z"/>
	<path class="st5" d="M37.6,42c0.4,0.1,0.7,0.1,1.1,0.2c-0.1,0.8-0.8,1.5-1.6,1.5c-0.3,0-0.7,0-1-0.1c-0.6-0.1-1-0.5-1.2-1.1
		c-0.3-0.7-0.3-1.5,0.1-2.2c0.3-0.7,0.9-1,1.6-1c0.3,0,0.6,0,0.9,0.1c0.6,0.2,1,0.6,1.2,1.2c-0.4,0.1-0.7,0.1-1.1,0.2c0,0,0,0,0,0
		c-0.2-0.5-0.4-0.7-0.8-0.7c-0.4,0-0.8,0.3-0.9,0.7c-0.1,0.4-0.1,0.9,0,1.3c0.1,0.4,0.4,0.7,0.9,0.7c0.4,0,0.6-0.2,0.8-0.7
		C37.5,42.1,37.6,42,37.6,42z"/>
	<path class="st6" d="M31.8,42.7c0,0.3,0.1,0.6,0.1,0.8c-0.4,0.2-0.8,0.2-1.2,0.1c-0.5-0.1-0.8-0.4-0.8-1c0-0.7,0-1.4,0-2.2
		c0-0.1,0-0.2,0-0.2c-0.2,0-0.3,0-0.5,0c0-0.3,0-0.6,0-0.9c0.2,0,0.3,0,0.5,0c0-0.2,0-0.5,0-0.7c0-0.1,0.1-0.2,0.1-0.2
		c0.3-0.2,0.6-0.4,1-0.6c0,0.5,0,1,0,1.5c0.3,0,0.5,0,0.7,0c0,0.3,0,0.6,0,0.9c-0.2,0-0.5,0-0.7,0c0,0.8,0,1.5,0,2.3
		c0,0.2,0.2,0.3,0.4,0.2C31.6,42.7,31.7,42.7,31.8,42.7z"/>
	<path class="st10" d="M24.2,43.6c-0.4,0-0.7,0-1.1,0c0-1.9,0-3.9,0-5.8c0.4,0,0.7,0,1.1,0C24.2,39.7,24.2,41.6,24.2,43.6z"/>
	<path class="st10" d="M32.7,39.4c0.4,0,0.7,0,1.1,0c0,1.4,0,2.8,0,4.2c-0.4,0-0.7,0-1.1,0C32.7,42.2,32.7,40.8,32.7,39.4z"/>
	<path class="st11" d="M32.6,38.7c0-0.3,0-0.6,0-1c0.4,0,0.7,0,1.1,0c0,0.3,0,0.6,0,1C33.4,38.7,33,38.7,32.6,38.7z"/>
	<path class="st12" d="M32.9,9.9c2.5,3.4,4.9,6.9,7.4,10.3c0,0,0,0-0.1,0.1c-0.2-0.2-0.4-0.4-0.6-0.6c-1-1-2-2-3-2.9
		c-1.1-1-2.2-1.9-3.4-2.7c-0.7-0.5-1.5-0.9-2.2-1.3C31.6,11.7,32.3,10.8,32.9,9.9z"/>
</g>
</svg>
