<?xml version="1.0" standalone="no"?>
<!DOCTYPE svg PUBLIC "-//W3C//DTD SVG 20010904//EN"
 "http://www.w3.org/TR/2001/REC-SVG-20010904/DTD/svg10.dtd">
<svg version="1.0" xmlns="http://www.w3.org/2000/svg"
 width="1272.000000pt" height="1147.000000pt" viewBox="0 0 1272.000000 1147.000000"
 preserveAspectRatio="xMidYMid meet">

<g transform="translate(0.000000,1147.000000) scale(0.100000,-0.100000)"
fill="#000000" stroke="none">
<path d="M1669 4444 c-173 -444 -315 -810 -317 -815 -2 -5 75 -9 170 -9 l174
0 66 183 66 182 329 3 330 2 70 -182 71 -183 176 -3 c97 -1 176 1 176 6 0 5
-145 370 -323 813 l-323 804 -175 3 -175 2 -315 -806z m605 106 c58 -156 104
-285 102 -287 -2 -2 -102 -2 -223 -1 l-220 3 103 285 c57 157 107 292 110 300
5 13 6 13 14 0 5 -9 56 -143 114 -300z"/>
<path d="M3170 4435 l0 -816 423 3 c466 4 460 4 597 73 258 130 388 474 340
900 -32 280 -158 490 -356 589 -114 57 -134 59 -586 64 l-418 4 0 -817z m781
516 c112 -35 183 -115 221 -250 27 -94 35 -335 15 -461 -28 -182 -78 -265
-189 -316 -62 -28 -65 -29 -280 -32 l-218 -4 0 548 0 547 193 -6 c152 -5 206
-11 258 -26z"/>
<path d="M6462 4820 c-81 -12 -161 -46 -227 -95 -150 -113 -225 -286 -225
-521 0 -387 207 -614 560 -614 111 0 189 15 267 50 67 31 148 100 194 166 29
43 65 122 58 129 -3 2 -61 13 -129 24 -69 12 -135 23 -146 26 -18 4 -26 -5
-49 -51 -36 -73 -85 -106 -166 -112 -41 -3 -74 1 -103 12 -79 30 -147 115
-161 201 -3 22 -8 50 -11 63 l-4 22 395 0 395 0 0 83 c0 113 -32 256 -76 345
-60 123 -172 215 -311 255 -66 20 -193 28 -261 17z m171 -241 c48 -13 112 -70
139 -122 11 -22 22 -64 25 -93 l6 -54 -238 0 -237 0 7 48 c13 93 58 167 120
199 64 34 115 40 178 22z"/>
<path d="M7865 4821 c-67 -17 -125 -64 -192 -156 l-22 -30 -1 83 0 82 -145 0
-145 0 0 -590 0 -590 154 0 154 0 5 338 c3 185 10 360 16 387 6 28 23 75 39
105 21 43 37 60 72 78 54 28 125 25 189 -7 l41 -22 9 23 c40 108 85 248 80
252 -3 4 -30 15 -60 25 -65 23 -153 33 -194 22z"/>
<path d="M8615 4819 c-205 -34 -354 -187 -399 -411 -20 -97 -20 -280 -1 -373
35 -165 141 -312 271 -376 66 -33 73 -34 189 -34 114 0 123 2 186 31 43 20 87
53 124 90 l57 58 -4 -154 c-4 -179 -14 -208 -88 -249 -36 -20 -61 -25 -144
-28 -91 -4 -106 -2 -146 19 -32 16 -48 32 -55 55 -6 18 -13 34 -16 37 -4 4
-318 46 -345 46 -3 0 -4 -31 -2 -68 11 -157 119 -264 313 -308 109 -25 361
-25 455 -1 178 47 266 130 318 300 14 45 16 142 19 700 l4 647 -145 0 -146 0
0 -80 0 -80 -56 56 c-65 65 -152 110 -240 124 -66 11 -79 11 -149 -1z m271
-257 c89 -46 140 -133 153 -260 26 -257 -80 -431 -262 -432 -69 0 -120 19
-165 63 -71 68 -96 158 -91 328 4 106 7 120 37 182 51 104 128 151 233 143 30
-2 73 -13 95 -24z"/>
<path d="M10034 4820 c-201 -31 -351 -161 -420 -365 -35 -104 -45 -316 -20
-435 61 -288 274 -443 590 -427 169 8 268 49 363 149 44 47 113 160 113 186 0
5 -60 19 -132 31 -73 12 -141 25 -151 27 -13 4 -22 -5 -36 -38 -38 -87 -99
-128 -194 -128 -129 0 -232 104 -251 253 l-6 47 397 0 396 0 -6 113 c-11 201
-62 340 -161 439 -117 116 -308 176 -482 148z m169 -241 c48 -13 112 -70 139
-122 11 -22 22 -64 25 -93 l6 -54 -238 0 -238 0 7 49 c22 165 152 261 299 220z"/>
<path d="M4894 4248 c123 -304 230 -570 239 -591 l16 -38 142 3 143 3 222 560
c123 308 228 572 233 588 l10 27 -158 0 -159 0 -120 -322 c-66 -178 -130 -354
-142 -393 -12 -38 -26 -74 -30 -78 -4 -5 -18 24 -30 65 -12 40 -76 220 -142
401 l-121 327 -163 0 -162 0 222 -552z"/>
<path d="M2497 2453 c-64 -164 -174 -446 -245 -628 l-128 -330 130 -3 c80 -2
132 1 136 8 3 5 28 71 54 145 l49 135 255 -2 255 -3 55 -142 55 -143 133 0
c74 0 134 3 134 8 0 4 -112 286 -248 627 l-248 620 -135 3 -136 3 -116 -298z
m336 -234 l84 -224 -165 -3 c-91 -1 -167 0 -170 3 -3 2 23 82 58 177 94 261
102 280 106 275 2 -2 41 -104 87 -228z"/>
<path d="M5600 2120 l0 -630 120 0 120 0 0 630 0 630 -120 0 -120 0 0 -630z"/>
<path d="M7670 2640 l0 -110 120 0 120 0 0 110 0 110 -120 0 -120 0 0 -110z"/>
<path d="M7203 2653 l-113 -66 0 -93 0 -94 -55 0 -55 0 0 -95 0 -95 55 0 55 0
0 -278 c0 -307 7 -356 57 -404 45 -43 93 -58 185 -57 46 0 103 6 128 12 l45
12 -3 85 c-2 47 -7 89 -12 93 -4 5 -26 3 -49 -3 -45 -12 -72 -7 -96 16 -13 13
-15 57 -15 270 l0 254 80 0 80 0 0 95 0 95 -80 0 -80 0 0 160 c0 88 -3 160 -7
160 -5 -1 -59 -31 -120 -67z"/>
<path d="M3933 2402 c-61 -22 -124 -63 -159 -105 l-24 -29 0 66 0 66 -110 0
-110 0 0 -455 0 -455 114 0 113 0 6 288 c3 167 10 303 17 324 43 144 244 187
315 67 19 -32 20 -55 23 -356 l3 -323 120 0 119 0 0 322 c0 191 -5 347 -11
385 -25 141 -117 214 -277 220 -66 3 -100 -1 -139 -15z"/>
<path d="M4815 2407 c-112 -30 -187 -94 -224 -191 l-19 -51 92 -17 c122 -23
121 -23 145 17 31 53 75 75 149 75 110 0 162 -41 162 -129 0 -28 -4 -32 -52
-46 -29 -8 -98 -24 -152 -35 -188 -38 -251 -65 -309 -129 -44 -49 -61 -106
-55 -191 6 -73 23 -113 69 -159 61 -62 102 -76 219 -76 120 0 173 15 247 72
25 19 47 33 49 30 2 -2 10 -21 17 -43 l14 -39 116 -3 c65 -1 117 -1 117 0 0 2
-10 28 -22 58 -20 51 -22 78 -28 370 -5 256 -9 322 -22 351 -20 46 -88 103
-147 125 -62 22 -296 29 -366 11z m301 -568 c-8 -100 -24 -132 -84 -170 -80
-51 -192 -36 -227 31 -30 57 -13 124 37 151 24 13 233 67 262 68 18 1 18 -5
12 -80z"/>
<path d="M8410 2404 c-195 -52 -300 -213 -300 -459 0 -218 78 -363 238 -438
65 -31 71 -32 202 -32 131 0 137 1 202 32 36 17 85 50 107 73 42 43 96 144
103 189 3 24 -1 26 -92 42 -135 25 -133 26 -148 -22 -18 -59 -40 -88 -83 -110
-105 -53 -229 5 -270 126 -18 52 -18 247 -1 298 30 84 94 130 182 130 86 0
147 -43 165 -116 5 -19 12 -26 24 -23 9 3 62 12 118 22 l101 17 -19 51 c-46
114 -130 191 -244 221 -74 19 -212 18 -285 -1z"/>
<path d="M9325 2406 c-104 -26 -179 -85 -212 -165 -21 -49 -20 -146 2 -199 38
-93 128 -142 372 -202 68 -17 134 -35 148 -40 63 -24 48 -115 -24 -143 -62
-25 -166 -22 -221 6 -39 19 -76 63 -92 110 -3 6 -226 -21 -237 -29 -9 -7 51
-116 84 -152 43 -49 133 -96 212 -112 89 -19 285 -8 354 19 75 28 141 89 175
156 23 48 26 64 23 134 -4 69 -8 85 -34 123 -43 61 -127 100 -320 149 -88 23
-176 50 -197 60 -33 17 -38 24 -38 54 0 49 32 67 130 73 113 6 154 -12 205
-91 9 -14 21 -13 118 5 59 12 107 25 107 30 0 5 -11 30 -25 57 -31 63 -100
123 -167 146 -69 23 -290 30 -363 11z"/>
<path d="M5980 2396 c0 -2 76 -206 170 -453 93 -246 170 -455 170 -464 0 -29
-29 -87 -61 -123 -38 -44 -93 -60 -167 -51 l-55 7 8 -89 c4 -48 12 -91 17 -94
22 -14 141 -19 204 -9 124 20 196 75 246 190 18 43 384 1036 395 1073 5 16 -4
17 -118 15 l-123 -3 -105 -317 c-58 -175 -109 -314 -113 -310 -5 5 -55 148
-112 318 l-103 309 -126 3 c-70 1 -127 1 -127 -2z"/>
<path d="M7670 1945 l0 -455 120 0 120 0 0 455 0 455 -120 0 -120 0 0 -455z"/>
</g>
</svg>
